<?xml version="1.0" encoding="UTF-8"?>
<svg width="33px" height="32px" viewBox="0 0 33 32" version="1.1" xmlns="http://www.w3.org/2000/svg" xmlns:xlink="http://www.w3.org/1999/xlink">
    <!-- Generator: Sketch 57.1 (83088) - https://sketch.com -->
    <title>github-mark</title>
    <desc>Created with Sketch.</desc>
    <g id="Page-1" stroke="none" stroke-width="1" fill="none" fill-rule="evenodd">
        <g id="Artboard" transform="translate(-11.000000, -10.000000)" fill="#191717">
            <g id="github-mark" transform="translate(10.000000, 10.000000)">
                <path d="M17.29,-8.5350194e-06 C9.29377592,-0.00812715554 2.47389604,5.78869798 1.19360319,13.6817656 C-0.0866896569,21.5748331 4.55118752,29.2301606 12.14,31.75 C12.3957727,31.8468301 12.6829845,31.8097716 12.9058018,31.6511899 C13.1286192,31.4926082 13.2577097,31.2333794 13.25,30.96 C13.25,30.57 13.25,29.55 13.25,28.19 C8.72,29.19 7.76,26.01 7.76,26.01 C7.46000155,25.0260976 6.81800777,24.181929 5.95,23.63 C4.47,22.63 6.06,22.63 6.06,22.63 C7.10834404,22.7731287 8.0314094,23.3934287 8.56,24.31 C9.00663859,25.1205981 9.7585889,25.7191848 10.6486942,25.9726958 C11.5387995,26.2262069 12.4932955,26.1136333 13.3,25.66 C13.364482,24.8377951 13.7188771,24.0652137 14.3,23.48 C10.68,23.07 6.88,21.67 6.88,15.43 C6.85785738,13.8116093 7.45943958,12.2467794 8.56,11.06 C8.06347457,9.65523464 8.12068663,8.11408457 8.72,6.75 C8.72,6.75 10.09,6.31 13.2,8.42 C15.8707835,7.68823813 18.6892165,7.68823813 21.36,8.42 C24.47,6.31 25.84,6.75 25.84,6.75 C26.4403137,8.11385487 26.4975401,9.65538954 26,11.06 C27.0978125,12.2477775 27.6958873,13.8127995 27.67,15.43 C27.67,21.69 23.86,23.06 20.23,23.43 C21.0130562,24.2245737 21.4172902,25.3170982 21.34,26.43 C21.34,28.61 21.34,30.36 21.34,30.9 C21.3343418,31.1742013 21.4661414,31.4330769 21.6912006,31.5898145 C21.9162598,31.7465522 22.2047771,31.7803973 22.46,31.68 C29.9436196,29.0848558 34.475885,21.4828155 33.2001284,13.6654131 C31.9243717,5.84801064 25.2103994,0.0812938312 17.29,-8.5350194e-06 Z" id="Path"></path>
            </g>
        </g>
    </g>
</svg>